#Produced by Art of Illusion 2.4.1, Mon Sep 08 22:22:09 CEST 2008
g Mesh
usemtl white
v 0.5 -0.5 0.5
v -0.5 0.5 0.5
v -0.5 -0.5 0.5
v 0.5 -0.5 0.5
vn 1 0 0
vn 0 0 0
vn -0 0 1
f 3//2 4//2 1//2
f 1//3 2//3 3//3
g Triangle
v 0.5 -0.5 0.5
v 0.5 -0.5 -0.5
v -0 0 0.5
v 0 0 -0.5
v -0.5 0.5 0.5
v -0.5 0.5 -0.5
v -0.5 0 0.5
v -0.5 0 -0.5
v -0.5 -0.5 0.5
v -0.5 -0.5 -0.5
v -0 -0.5 0.5
v 0 -0.5 -0.5
v 0.5 -0.5 0.5
v 0.5 -0.5 -0.5
vn 0.70711 0.70711 0
vn 0.70711 0.70711 0
vn 0.70711 0.70711 0
vn 0.70711 0.70711 0
vn 0.70711 0.70711 0
vn -1 0 -0
vn 0.70711 0.70711 0
vn -1 0 -0
vn 0.70711 0.70711 0
vn -1 0 -0
vn -1 0 -0
vn 0 -1 -0
vn -1 0 -0
vn 0 -1 -0
vn -1 0 -0
vn 0 -1 -0
vn 0 -1 -0
vn 0 -1 -0
vn 0 -1 -0
vn 0 -1 -0
f 5//4 6//6 8//8
f 5//4 8//8 7//7
f 7//7 8//8 10//12
f 7//7 10//12 9//10
f 9//9 10//11 12//14
f 9//9 12//14 11//13
f 11//13 12//14 14//18
f 11//13 14//18 13//16
f 13//15 14//17 16//20
f 13//15 16//20 15//19
f 15//19 16//20 18//23
f 15//19 18//23 17//22
g Mesh_1
v 0.5 -0.5 -0.5
v -0.5 0.5 -0.5
v -0.5 -0.5 -0.5
v 0.5 -0.5 -0.5
vn 1 0 0
vn 0 0 0
vn 0 0 -1
f 21//25 19//25 22//25
f 19//26 21//26 20//26
